<?xml version="1.0" standalone="no"?><!DOCTYPE svg PUBLIC "-//W3C//DTD SVG 1.1//EN" "http://www.w3.org/Graphics/SVG/1.1/DTD/svg11.dtd"><svg t="1555396702357" class="icon" style="" viewBox="0 0 1024 1024" version="1.1" xmlns="http://www.w3.org/2000/svg" p-id="6087" xmlns:xlink="http://www.w3.org/1999/xlink" width="200" height="200"><defs><style type="text/css"></style></defs><path d="M465.565435 935.183162l6.124487-254.342756H65.893756V88.816838h892.211465v592.023568h-204.857715l-287.682071 254.342756z m-320.945663-333.067748h407.691329l-3.715625 154.553005 174.823678-154.553005h155.963121V167.541831h-734.762503v434.573583z" p-id="6088"></path><path d="M273.354761 400.821875m-46.962591 0a46.962591 46.962591 0 1 0 93.925183 0 46.962591 46.962591 0 1 0-93.925183 0Z" p-id="6089"></path><path d="M521.441023 400.821875m-46.962591 0a46.962591 46.962591 0 1 0 93.925182 0 46.962591 46.962591 0 1 0-93.925182 0Z" p-id="6090"></path><path d="M751.043305 400.821875m-46.962592 0a46.962591 46.962591 0 1 0 93.925183 0 46.962591 46.962591 0 1 0-93.925183 0Z" p-id="6091"></path></svg>