<?xml version="1.0" standalone="no"?><!DOCTYPE svg PUBLIC "-//W3C//DTD SVG 1.1//EN" "http://www.w3.org/Graphics/SVG/1.1/DTD/svg11.dtd"><svg t="1557801297047" class="icon" style="" viewBox="0 0 1024 1024" version="1.1" xmlns="http://www.w3.org/2000/svg" p-id="5527" xmlns:xlink="http://www.w3.org/1999/xlink" width="200" height="200"><defs><style type="text/css"></style></defs><path d="M401.136175 476.090182c-167.866182 7.749818-303.010909 97.605818-303.01091 209.524363 0 111.941818 135.726545 195.863273 303.01091 188.113455 167.889455-7.749818 303.616-112.500364 303.616-224.442182 0-111.872-135.726545-180.945455-303.616-173.195636z m114.315636 281.576727c-51.2 66.071273-152.994909 98.816-251.810909 45.242182-47.034182-25.6-45.242182-75.589818-45.242182-75.589818s-19.642182-157.765818 149.434182-177.408c169.053091-19.642182 199.400727 141.684364 147.618909 207.755636z m-113.105455-105.960727c-10.728727 7.726545-13.102545 22.621091-7.144727 32.139636 5.352727 9.495273 19.060364 10.705455 29.160727 2.978909 10.728727-8.331636 14.266182-22.621091 8.913455-32.139636-5.329455-9.518545-18.432-11.915636-30.929455-2.978909z m-79.778909 22.016c-31.557818 2.978909-54.178909 30.952727-54.178909 57.157818 0 26.181818 25.623273 44.637091 56.576 41.053091 31.534545-3.560727 57.134545-27.973818 57.134546-54.155636 0-26.786909-23.202909-47.616-59.531637-44.055273z m532.200728 49.408c-69.050182 147.060364-297.053091 218.484364-466.106182 204.8C227.917265 915.409455 21.953629 861.858909 0.519447 667.764364c0 0-11.310545-88.110545 73.797818-201.797819 0 0 122.624-171.450182 265.495273-220.276363 142.871273-48.826182 159.534545 33.931636 159.534546 82.152727-7.726545 41.076364-22.016 65.466182 31.557818 48.826182 0 0 140.497455-64.907636 198.237091-7.144727 46.429091 46.429091 7.749818 110.731636 7.749818 110.731636s-19.037091 21.434182 20.247273 29.160727c41.076364 8.936727 166.679273 66.676364 97.629091 213.713455z m-138.682182-405.410909a27.275636 27.275636 0 0 1-27.392-27.368728c0-15.499636 12.497455-27.997091 27.392-27.99709 0 0 172.055273-31.557818 151.761454 153.6 0 1.186909 0 1.792-0.558545 2.978909a27.461818 27.461818 0 0 1-26.786909 23.202909c-15.476364 0-27.973818-12.520727-27.973818-27.392-0.023273-0.558545 27.368727-124.369455-96.442182-97.024z m291.677091 148.247272c-4.747636 31.534545-20.247273 33.931636-38.702546 33.931637-22.016 0-39.866182-13.684364-39.866182-36.328727 0-19.037091 7.749818-38.702545 7.749819-38.702546 2.373818-8.331636 20.829091-58.344727-12.520728-133.329454-61.323636-102.981818-184.529455-104.192-199.424-98.816-14.871273 5.957818-36.305455 8.936727-36.305454 8.936727a40.029091 40.029091 0 0 1-39.889455-40.494546c0-18.455273 12.497455-33.931636 29.160727-38.679272 0 0 0.605091-0.605091 1.18691-0.605091 1.186909 0 2.397091-1.210182 3.584-1.815273 17.268364-3.537455 78.568727-15.453091 138.123636-1.163636 105.937455 24.436364 252.392727 127.394909 186.903273 347.066181z m0 0" fill="#D81E06" p-id="5528"></path></svg>